<svg width="160" height="40" viewBox="0 0 160 40" xmlns="http://www.w3.org/2000/svg">
  <defs><linearGradient id="g" x1="0" y1="0" x2="1" y2="0"><stop offset="0" stop-color="#0a84ff"/><stop offset="1" stop-color="#6e6eff"/></linearGradient></defs>
  <path d="M10,20 h18 a8,8 0 0 1 8,8 v0 a8,8 0 0 1 -8,8 h-12 a8,8 0 0 1 -8,-8 v0 a8,8 0 0 1 8,-8
           M44,20 h18 a8,8 0 0 1 8,8 v0 a8,8 0 0 1 -8,8 h-12 a8,8 0 0 1 -8,-8 v0 a8,8 0 0 1 8,-8
           M38,22 h6" stroke="url(#g)" stroke-width="2.4" fill="none" stroke-linecap="round"/>
</svg>
